<?xml version="1.0" encoding="utf-8"?>
<!-- Generator: Adobe Illustrator 16.0.0, SVG Export Plug-In . SVG Version: 6.00 Build 0)  -->
<!DOCTYPE svg PUBLIC "-//W3C//DTD SVG 1.1//EN" "http://www.w3.org/Graphics/SVG/1.1/DTD/svg11.dtd">
<svg version="1.1" id="Express" xmlns="http://www.w3.org/2000/svg" xmlns:xlink="http://www.w3.org/1999/xlink" x="0px" y="0px"
	 width="612px" height="792px" viewBox="0 0 612 792" enable-background="new 0 0 612 792" xml:space="preserve">
<title>Artboard 16</title>
<g id="original">
	<path fill="#A0A0A0" d="M605.641,560.666c-21.802,5.547-35.285,0.239-47.382-17.93c-27.157-40.688-57.136-79.512-86.063-119.053
		c-3.729-5.116-7.603-10.137-12.432-16.496c-34.233,46.188-68.419,90.175-100.502,135.932
		c-11.475,16.352-23.523,23.476-44.943,17.69L443.03,388.063L323.213,232.051c20.606-4.016,34.854-1.96,47.478,16.496
		c27.875,40.736,58.618,79.512,89.266,120.535c30.839-40.88,61.2-79.704,89.888-120.057c11.522-16.352,23.906-22.567,44.609-16.543
		c-15.683,20.798-31.03,41.262-46.474,61.582c-20.847,27.397-41.311,55.128-62.922,81.951c-7.697,9.563-6.454,15.778,0.431,24.815
		C525.459,453.375,564.952,506.447,605.641,560.666z"/>
	<path fill="#A0A0A0" d="M6.359,385.194c3.443-17.26,5.738-34.855,10.519-51.781c28.688-102.462,146.306-145.063,227.109-81.568
		c47.334,37.246,59.096,89.744,56.753,148.936H33.947c-4.016,106.191,72.436,170.308,169.878,137.604
		c34.186-11.476,54.315-38.25,64.403-71.719c5.116-16.782,13.579-19.412,29.357-14.631c-8.08,41.884-26.393,76.883-64.643,98.781
		c-57.375,32.799-139.278,22.185-182.357-23.381c-25.436-26.775-36.242-60.101-41.023-96.104
		c-0.717-5.737-2.199-11.379-3.347-17.069C6.311,404.574,6.359,394.884,6.359,385.194z M34.425,378.07h241.119
		c-1.578-76.787-49.39-131.341-114.75-131.819C89.075,245.678,37.533,298.94,34.425,378.07z"/>
</g>
</svg>
